<?xml version="1.0" encoding="UTF-8" standalone="no"?>
<svg width="532px" height="409px" viewBox="0 0 532 409" version="1.1" xmlns="http://www.w3.org/2000/svg" xmlns:xlink="http://www.w3.org/1999/xlink" xmlns:sketch="http://www.bohemiancoding.com/sketch/ns">
    <!-- Generator: Sketch 3.4.2 (15857) - http://www.bohemiancoding.com/sketch -->
    <title>Group</title>
    <desc>Created with Sketch.</desc>
    <defs></defs>
    <g id="Page-1" stroke="none" stroke-width="1" fill="none" fill-rule="evenodd" sketch:type="MSPage">
        <g id="Group" sketch:type="MSLayerGroup" fill="#FFFFFF">
            <g id="HOLD" sketch:type="MSShapeGroup">
                <path d="M0.268270263,2.4540411 L18.5900342,2.4540411 L18.5900342,38.2882877 L50.2650874,38.2882877 L50.2650874,2.4540411 L68.5225212,2.4540411 L68.5225212,97.4307534 L50.2650874,97.4307534 L50.2650874,55.7855479 L18.5900342,55.7855479 L18.5900342,97.4307534 L0.268270263,97.4307534 L0.268270263,2.4540411 Z" id="Fill-4"></path>
                <path d="M135.002767,0.0647260274 C148.429283,0.0647260274 159.974485,4.92979452 169.637005,14.6571918 C179.298841,24.385274 184.130443,36.2441781 184.130443,50.2325342 C184.130443,64.0934932 179.362486,75.8236301 169.83068,85.4215753 C160.29682,95.0208904 148.731087,99.8202055 135.132111,99.8202055 C120.886413,99.8202055 109.051725,94.8914384 99.6266788,85.0339041 C90.2016328,75.1770548 85.4897941,63.4688356 85.4897941,49.9099315 C85.4897941,40.8284247 87.6838616,32.4770548 92.0740497,24.8585616 C96.4635534,17.2393836 102.49895,11.2023973 110.181608,6.74691781 C117.863582,2.29280822 126.136161,0.0647260274 135.002767,0.0647260274 M134.809092,17.7558219 C126.025294,17.7558219 118.641702,20.8133562 112.658317,26.9243151 C106.673564,33.0373288 103.681529,40.8065068 103.681529,50.2325342 C103.681529,60.7359589 107.448947,69.0441781 114.983783,75.1565068 C120.838507,79.9339041 127.554845,82.3229452 135.132111,82.3229452 C143.698966,82.3229452 150.996328,79.2236301 157.024196,73.025 C163.052065,66.8270548 166.065315,59.1866438 166.065315,50.1037671 C166.065315,41.064726 163.028797,33.4133562 156.959866,27.1503425 C150.888883,20.8873288 143.505291,17.7558219 134.809092,17.7558219" id="Fill-6"></path>
                <path d="M201.160677,2.4540411 L219.223752,2.4540411 L219.223752,80.1923973 L245.546403,80.1923973 L245.546403,97.4307534 L201.160677,97.4307534 L201.160677,2.4540411 Z" id="Fill-8"></path>
                <path d="M259.351987,2.4540411 L280.7527,2.4540411 C294.544666,2.4540411 304.793,4.16431507 311.496335,7.58691781 C318.19967,11.0088356 323.721794,16.5725342 328.062024,24.2773288 C332.404307,31.9834932 334.573737,40.9786986 334.573737,51.2663699 C334.573737,58.5841781 333.358993,65.3095205 330.930189,71.4430822 C328.503438,77.5766438 325.150744,82.6670548 320.874845,86.7129452 C316.600998,90.7595205 311.970599,93.5567808 306.984331,95.1067808 C302.000115,96.6560959 293.363455,97.4307534 281.073666,97.4307534 L259.351987,97.4307534 L259.351987,2.4540411 Z M277.285033,19.8876027 L277.285033,79.8040411 L285.671901,79.8040411 C293.930792,79.8040411 299.918283,78.8567808 303.639849,76.9602055 C307.360046,75.0643151 310.402723,71.8759589 312.76925,67.3944521 C315.13304,62.9129452 316.316303,57.3971918 316.316303,50.8471918 C316.316303,40.7643151 313.50015,32.9430822 307.866474,27.384863 C302.78987,22.3869178 294.640477,19.8876027 283.415556,19.8876027 L277.285033,19.8876027 Z" id="Fill-10"></path>
            </g>
            <g id="DO" transform="translate(0.000000, 104.000000)" sketch:type="MSShapeGroup">
                <path d="M0.852173913,3.11173913 L21.8608696,3.11173913 C35.4021739,3.11173913 45.4652174,4.79 52.0478261,8.14652174 C58.6282609,11.5030435 64.05,16.9617391 68.3108696,24.5182609 C72.5717391,32.0769565 74.7021739,40.9030435 74.7021739,50.9943478 C74.7021739,58.1726087 73.5108696,64.7704348 71.1282609,70.7856522 C68.7434783,76.8030435 65.4543478,81.7965217 61.2543478,85.766087 C57.0565217,89.7356522 52.5108696,92.4791304 47.6173913,93.9986957 C42.723913,95.5204348 34.2456522,96.2791304 22.1804348,96.2791304 L0.852173913,96.2791304 L0.852173913,3.11173913 Z M18.4608696,20.2117391 L18.4608696,78.9878261 L26.6934783,78.9878261 C34.8021739,78.9878261 40.6804348,78.0595652 44.3326087,76.1986957 C47.9847826,74.34 50.973913,71.2117391 53.2934783,66.816087 C55.6173913,62.4182609 56.7782609,57.0095652 56.7782609,50.5834783 C56.7782609,40.6921739 54.0130435,33.0204348 48.4804348,27.5682609 C43.5,22.663913 35.4978261,20.2117391 24.476087,20.2117391 L18.4608696,20.2117391 Z" id="Fill-12"></path>
                <path d="M135.602174,0.76826087 C148.784783,0.76826087 160.117391,5.54 169.604348,15.0813043 C179.08913,24.6247826 183.832609,36.2573913 183.832609,49.9791304 C183.832609,63.5769565 179.152174,75.0834783 169.793478,84.4986957 C160.434783,93.916087 149.080435,98.6226087 135.728261,98.6226087 C121.743478,98.6226087 110.123913,93.79 100.869565,84.1182609 C91.6152174,74.4508696 86.9913043,62.963913 86.9913043,49.6617391 C86.9913043,40.7552174 89.1456522,32.5617391 93.4543478,25.0878261 C97.7652174,17.616087 103.691304,11.6943478 111.232609,7.3226087 C118.773913,2.95304348 126.895652,0.76826087 135.602174,0.76826087 M135.41087,18.1204348 C126.78913,18.1204348 119.53913,21.1204348 113.665217,27.116087 C107.786957,33.1117391 104.852174,40.7334783 104.852174,49.9791304 C104.852174,60.2834783 108.55,68.4334783 115.945652,74.4291304 C121.693478,79.116087 128.28913,81.4595652 135.728261,81.4595652 C144.13913,81.4595652 151.302174,78.4182609 157.219565,72.3378261 C163.13913,66.2573913 166.1,58.763913 166.1,49.8530435 C166.1,40.9878261 163.117391,33.4813043 157.158696,27.3378261 C151.197826,21.1943478 143.947826,18.1204348 135.41087,18.1204348" id="Fill-14"></path>
            </g>
            <g id="NOT" transform="translate(1.000000, 207.000000)" sketch:type="MSShapeGroup">
                <path d="M0.125869565,3.11173913 L17.1367391,3.11173913 L57.0041304,64.4204348 L57.0041304,3.11173913 L74.7367391,3.11173913 L74.7367391,96.2791304 L57.6780435,96.2791304 L17.8606522,35.1595652 L17.8606522,96.2791304 L0.125869565,96.2791304 L0.125869565,3.11173913 Z" id="Fill-16"></path>
                <path d="M140.005652,0.76826087 C153.188261,0.76826087 164.52087,5.54 174.007826,15.0813043 C183.494783,24.6247826 188.236087,36.2573913 188.236087,49.9791304 C188.236087,63.5769565 183.557826,75.0834783 174.196957,84.4986957 C164.838261,93.916087 153.483913,98.6226087 140.133913,98.6226087 C126.146957,98.6226087 114.527391,93.79 105.273043,84.1182609 C96.0208696,74.4508696 91.3947826,62.963913 91.3947826,49.6617391 C91.3947826,40.7552174 93.5491304,32.5617391 97.8578261,25.0878261 C102.168696,17.616087 108.094783,11.6943478 115.638261,7.3226087 C123.179565,2.95304348 131.301304,0.76826087 140.005652,0.76826087 M139.814348,18.1204348 C131.192609,18.1204348 123.944783,21.1204348 118.068696,27.116087 C112.192609,33.1117391 109.255652,40.7334783 109.255652,49.9791304 C109.255652,60.2834783 112.955652,68.4334783 120.351304,74.4291304 C126.09913,79.116087 132.692609,81.4595652 140.133913,81.4595652 C148.544783,81.4595652 155.707826,78.4182609 161.625217,72.3378261 C167.544783,66.2573913 170.503478,58.763913 170.503478,49.8530435 C170.503478,40.9878261 167.52087,33.4813043 161.564348,27.3378261 C155.601304,21.1943478 148.353478,18.1204348 139.814348,18.1204348" id="Fill-18"></path>
                <path d="M195.773913,3.11173913 L247.265217,3.11173913 L247.265217,20.5921739 L230.291304,20.5921739 L230.291304,96.2791304 L212.306522,96.2791304 L212.306522,20.5921739 L195.773913,20.5921739 L195.773913,3.11173913 Z" id="Fill-20"></path>
            </g>
            <g id="DESTROY" transform="translate(1.000000, 310.000000)" sketch:type="MSShapeGroup">
                <path d="M0.13,3.11173913 L21.1408696,3.11173913 C34.6843478,3.11173913 44.7452174,4.79 51.3278261,8.14652174 C57.9082609,11.5030435 63.33,16.9617391 67.5865217,24.5182609 C71.8517391,32.0769565 73.98,40.9030435 73.98,50.9943478 C73.98,58.1726087 72.7908696,64.7704348 70.4082609,70.7856522 C68.0213043,76.8030435 64.7343478,81.7965217 60.5343478,85.766087 C56.3365217,89.7356522 51.7908696,92.4791304 46.8952174,93.9986957 C42.0017391,95.5204348 33.5234783,96.2791304 21.4604348,96.2791304 L0.13,96.2791304 L0.13,3.11173913 Z M17.7386957,20.2117391 L17.7386957,78.9878261 L25.9713043,78.9878261 C34.08,78.9878261 39.9582609,78.0595652 43.6126087,76.1986957 C47.2626087,74.34 50.253913,71.2117391 52.5713043,66.816087 C54.8973913,62.4182609 56.0582609,57.0095652 56.0582609,50.5834783 C56.0582609,40.6921739 53.2908696,33.0204348 47.7582609,27.5682609 C42.7778261,22.663913 34.7756522,20.2117391 23.756087,20.2117391 L17.7386957,20.2117391 Z" id="Fill-22"></path>
                <path d="M90.9567391,3.11173913 L141.815435,3.11173913 L141.815435,20.466087 L108.563261,20.466087 L108.563261,37.313913 L141.815435,37.313913 L141.815435,54.3508696 L108.563261,54.3508696 L108.563261,78.8617391 L141.815435,78.8617391 L141.815435,96.2791304 L90.9567391,96.2791304 L90.9567391,3.11173913 Z" id="Fill-24"></path>
                <path d="M207.243043,15.7786957 L194.108261,27.3678261 C189.497391,20.9526087 184.799565,17.7417391 180.021304,17.7417391 C177.695217,17.7417391 175.793043,18.3656522 174.308261,19.6091304 C172.832174,20.8569565 172.09087,22.2613043 172.09087,23.8221739 C172.09087,25.3852174 172.61913,26.8634783 173.675652,28.2569565 C175.112609,30.1156522 179.449565,34.1047826 186.68,40.2265217 C193.449565,45.8852174 197.553913,49.4526087 198.99087,50.9308696 C202.584348,54.5634783 205.136522,58.0352174 206.634348,61.3504348 C208.136522,64.6656522 208.888696,68.2852174 208.888696,72.2113043 C208.888696,79.8547826 206.247391,86.1678261 200.962609,91.1482609 C195.68,96.1330435 188.788696,98.6221739 180.293043,98.6221739 C173.658261,98.6221739 167.877826,96.9982609 162.953913,93.746087 C158.027826,90.496087 153.812609,85.3852174 150.303913,78.42 L165.208261,69.4265217 C169.693043,77.6591304 174.849565,81.7765217 180.686522,81.7765217 C183.73,81.7765217 186.29087,80.8895652 188.362609,79.1156522 C190.436522,77.3417391 191.471304,75.293913 191.471304,72.9721739 C191.471304,70.8613043 190.686522,68.7504348 189.123478,66.6395652 C187.558261,64.5286957 184.112609,61.2982609 178.784348,56.9482609 C168.627826,48.6721739 162.075652,42.2852174 159.112609,37.7873913 C156.153913,33.2917391 154.673478,28.8047826 154.673478,24.3286957 C154.673478,17.8678261 157.136522,12.3265217 162.060435,7.7026087 C166.984348,3.07869565 173.062609,0.767826087 180.29087,0.767826087 C184.94087,0.767826087 189.36913,1.84391304 193.577826,3.99826087 C197.782174,6.1526087 202.336522,10.0786957 207.243043,15.7786957" id="Fill-26"></path>
                <path d="M216.615435,3.11173913 L268.108913,3.11173913 L268.108913,20.5921739 L251.132826,20.5921739 L251.132826,96.2791304 L233.148043,96.2791304 L233.148043,20.5921739 L216.615435,20.5921739 L216.615435,3.11173913 Z" id="Fill-28"></path>
                <path d="M281.474783,3.11173913 L300.261739,3.11173913 C310.553043,3.11173913 317.883478,4.03130435 322.246522,5.86608696 C326.613913,7.70304348 330.124783,10.7552174 332.781304,15.0182609 C335.44,19.2834783 336.766087,24.3291304 336.766087,30.1552174 C336.766087,36.2791304 335.298696,41.3986957 332.366087,45.513913 C329.431304,49.6334783 325.009565,52.7465217 319.10087,54.8595652 L341.168261,96.2791304 L321.783478,96.2791304 L300.831304,56.8204348 L299.209565,56.8204348 L299.209565,96.2791304 L281.474783,96.2791304 L281.474783,3.11173913 Z M299.209565,39.5313043 L304.766087,39.5313043 C310.405217,39.5313043 314.29,38.7878261 316.416087,37.3073913 C318.542174,35.8247826 319.603043,33.366087 319.603043,29.9356522 C319.603043,27.9008696 319.07913,26.1334783 318.026957,24.6291304 C316.972609,23.1247826 315.561739,22.0443478 313.792174,21.3878261 C312.026957,20.7313043 308.785652,20.4030435 304.070435,20.4030435 L299.209565,20.4030435 L299.209565,39.5313043 Z" id="Fill-30"></path>
                <path d="M399.501957,0.76826087 C412.684565,0.76826087 424.019348,5.54 433.50413,15.0813043 C442.991087,24.6247826 447.732391,36.2573913 447.732391,49.9791304 C447.732391,63.5769565 443.051957,75.0834783 433.693261,84.4986957 C424.334565,93.916087 412.980217,98.6226087 399.630217,98.6226087 C385.643261,98.6226087 374.023696,93.79 364.771522,84.1182609 C355.517174,74.4508696 350.888913,62.963913 350.888913,49.6617391 C350.888913,40.7552174 353.047609,32.5617391 357.35413,25.0878261 C361.665,17.616087 367.591087,11.6943478 375.134565,7.3226087 C382.673696,2.95304348 390.795435,0.76826087 399.501957,0.76826087 M399.310652,18.1204348 C390.686739,18.1204348 383.438913,21.1204348 377.565,27.116087 C371.688913,33.1117391 368.751957,40.7334783 368.751957,49.9791304 C368.751957,60.2834783 372.449783,68.4334783 379.849783,74.4291304 C385.595435,79.116087 392.188913,81.4595652 399.630217,81.4595652 C408.041087,81.4595652 415.20413,78.4182609 421.121522,72.3378261 C427.038913,66.2573913 429.999783,58.763913 429.999783,49.8530435 C429.999783,40.9878261 427.017174,33.4813043 421.056304,27.3378261 C415.099783,21.1943478 407.849783,18.1204348 399.310652,18.1204348" id="Fill-32"></path>
                <path d="M457.835,3.11173913 L476.87413,3.11173913 L494.256739,36.6269565 L511.556739,3.11173913 L530.354565,3.11173913 L503.087174,55.9334783 L503.087174,96.2791304 L485.228478,96.2791304 L485.228478,55.9334783 L457.835,3.11173913 Z" id="Fill-34"></path>
            </g>
        </g>
    </g>
</svg>